<svg xmlns="http://www.w3.org/2000/svg" xmlns:xlink="http://www.w3.org/1999/xlink" width="60" height="60" viewBox="0 0 60 60">
  <defs>
    <clipPath id="clip-path">
      <rect id="Rectangle_18093" data-name="Rectangle 18093" width="60" height="60" transform="translate(6.958)" fill="#fff"/>
    </clipPath>
    <clipPath id="clip-path-2">
      <rect id="Rectangle_18092" data-name="Rectangle 18092" width="55.92" height="27.631" fill="none"/>
    </clipPath>
    <clipPath id="clip-path-3">
      <rect id="Rectangle_18085" data-name="Rectangle 18085" width="10.03" height="1.452" fill="none"/>
    </clipPath>
    <clipPath id="clip-path-4">
      <rect id="Rectangle_18087" data-name="Rectangle 18087" width="3.529" height="3.529" fill="none"/>
    </clipPath>
    <clipPath id="clip-path-5">
      <rect id="Rectangle_18088" data-name="Rectangle 18088" width="3.197" height="3.197" fill="none"/>
    </clipPath>
  </defs>
  <g id="Mask_Group_72" data-name="Mask Group 72" transform="translate(-6.958)" clip-path="url(#clip-path)">
    <g id="Group_42008" data-name="Group 42008" transform="translate(6.916 24.771)">
      <rect id="Rectangle_18084" data-name="Rectangle 18084" width="1.734" height="1.317" transform="translate(29.176 17.542)" fill="#e64d18"/>
      <g id="Group_42007" data-name="Group 42007" transform="translate(2.083 -1.065)">
        <g id="Group_42006" data-name="Group 42006" clip-path="url(#clip-path-2)">
          <path id="Path_63417" data-name="Path 63417" d="M30.718,17.393l.364,1.785a1.032,1.032,0,0,0,1.012.528c.75-.04,3,0,3,0s.731-.141.854-.709.224-1.605.224-1.605Z" transform="translate(-5.362 -3.036)" fill="#d72e19"/>
          <path id="Path_63418" data-name="Path 63418" d="M22.914,15.551v9.882s.114,1.37.9,1.1.807-.439.93-.977,0-5.871,0-5.871.39-2.617,2.326-3.325,1.815-1.1,1.815-1.1Z" transform="translate(-4 -2.664)" fill="#d72e19"/>
          <path id="Path_63419" data-name="Path 63419" d="M43.776,15.551v9.882s-.114,1.37-.9,1.1-.807-.439-.93-.977,0-5.871,0-5.871-.39-2.617-2.326-3.325-1.815-1.1-1.815-1.1Z" transform="translate(-6.599 -2.664)" fill="#d72e19"/>
          <path id="Path_63420" data-name="Path 63420" d="M28.314,2.443,29.79.612a2.37,2.37,0,0,1,1.23-.6c.6-.021,3.776,0,3.776,0A2.017,2.017,0,0,1,36.025.55c.513.514,1.629,1.894,1.629,1.894Z" transform="translate(-4.942 0)" fill="#003472"/>
          <path id="Path_63421" data-name="Path 63421" d="M.073,3.143s-.28-.415.258-.617l16.621-.01a.414.414,0,0,1,.258.527c-.124.393-5.317.759-5.317.759s-1.066.156-1.379-.169-.28-.6-.471-.617a1.806,1.806,0,0,0-.886.011,6.576,6.576,0,0,1-1.649-.069s-.37-.012-.426.134a1.1,1.1,0,0,1-1.268.748C4.85,3.729.846,3.39.846,3.39S.13,3.28.073,3.143" transform="translate(0 -0.439)" fill="#ef7d00"/>
          <path id="Path_63422" data-name="Path 63422" d="M46.939,3.143s-.28-.415.258-.617l16.621-.01a.414.414,0,0,1,.258.527c-.124.393-5.317.759-5.317.759s-1.066.156-1.379-.169-.28-.6-.47-.617a1.806,1.806,0,0,0-.886.011,6.576,6.576,0,0,1-1.649-.069s-.37-.012-.426.134a1.1,1.1,0,0,1-1.268.748c-.964-.11-4.968-.449-4.968-.449S47,3.28,46.939,3.143" transform="translate(-8.181 -0.439)" fill="#ef7d00"/>
          <path id="Path_63423" data-name="Path 63423" d="M58.956,8.172l-.479,2a1.121,1.121,0,0,1-.854.807,16.179,16.179,0,0,1-1.858,0s-.7-.281-.76-.854-.234-1.586-.234-1.586l.347-.029V4.184a.5.5,0,0,1,.5-.507h.722L56.4,1.932s.028-.281.244-.31a1.371,1.371,0,0,1,.376,0,.271.271,0,0,1,.253.262c.028.206.112,1.323.141,1.792h.563a.5.5,0,0,1,.5.507V8.21Z" transform="translate(-9.561 -0.281)" fill="#003472"/>
          <path id="Path_63424" data-name="Path 63424" d="M8.005,8.172l.479,2a1.121,1.121,0,0,0,.854.807,16.178,16.178,0,0,0,1.858,0s.7-.281.76-.854.234-1.586.234-1.586l-.347-.029V4.184a.5.5,0,0,0-.5-.507h-.722l-.066-1.745s-.028-.281-.244-.31a1.371,1.371,0,0,0-.376,0,.272.272,0,0,0-.253.262c-.028.206-.112,1.323-.141,1.792H8.981a.5.5,0,0,0-.5.507V8.21Z" transform="translate(-1.397 -0.281)" fill="#003472"/>
          <path id="Path_63425" data-name="Path 63425" d="M41.677,11.136s4.209,2.788,5.076,5.461.285,12.739.285,12.739-1.022.669-1.454-.234-.045-8.257-.045-8.257a5.751,5.751,0,0,0-1.261-3.695A14.255,14.255,0,0,0,40.1,14.284Z" transform="translate(-6.999 -1.944)" fill="#ef7d00"/>
          <path id="Path_63426" data-name="Path 63426" d="M6.105,7.189a.535.535,0,0,1,.643-.623c.978.1,10.319-.161,10.319-.161a2.1,2.1,0,0,0,1.619-.471A9.93,9.93,0,0,0,20.88,3.575c.709-1.044,4.755-.872,4.755-.872l8.329-.011a4.373,4.373,0,0,1,3.809,1.537A4.7,4.7,0,0,0,40.1,6.219a45.034,45.034,0,0,0,6.509.308l4.653.037s1.012-.1.809.625a7.316,7.316,0,0,1-.439,1.2l-11.5,2.183s-1.315.1-1.653.943c0,0-8.673,8.661-18.615.257a3.056,3.056,0,0,0-1.854-1.249c-1.18-.2-11.045-2-11.045-2a.844.844,0,0,1-.686-.553,4.169,4.169,0,0,1-.172-.777" transform="translate(-1.065 -0.464)" fill="#ef7d00"/>
          <path id="Path_63427" data-name="Path 63427" d="M30.6,17.123l.364,1.785a1.033,1.033,0,0,0,1.013.528c.75-.04,3,0,3,0s.731-.141.853-.709.224-1.605.224-1.605Z" transform="translate(-5.342 -2.989)" fill="#ef7d00"/>
          <g id="Group_41990" data-name="Group 41990" transform="translate(23.068 4.294)" style="mix-blend-mode: normal;isolation: isolate">
            <g id="Group_41989" data-name="Group 41989">
              <g id="Group_41988" data-name="Group 41988" clip-path="url(#clip-path-3)">
                <path id="Path_63428" data-name="Path 63428" d="M37.338,6.654H28.585a.64.64,0,0,1-.638-.638V5.841a.64.64,0,0,1,.638-.638h8.753a.64.64,0,0,1,.638.638v.175a.64.64,0,0,1-.638.638" transform="translate(-27.946 -5.203)" fill="#d72e19"/>
              </g>
            </g>
          </g>
          <path id="Path_63429" data-name="Path 63429" d="M24.858,11.136s-4.209,2.788-5.076,5.461S19.5,29.336,19.5,29.336s1.022.669,1.454-.234S21,20.845,21,20.845a5.751,5.751,0,0,1,1.261-3.695,14.255,14.255,0,0,1,4.179-2.866Z" transform="translate(-3.37 -1.944)" fill="#ef7d00"/>
          <path id="Path_63430" data-name="Path 63430" d="M20.526,12.116a1.607,1.607,0,0,1,1.309-.187c.715.228.837.437,2.894,1.833a13.057,13.057,0,0,0,6.294,2.115c1.274-.051,3.863.019,5.931-1.164a15.763,15.763,0,0,0,3.35-2.544,2.184,2.184,0,0,1,2.343,0s-.812-.2-2.338,1.542-5.049,2.906-5.929,2.975a13.077,13.077,0,0,1-12.16-3.528" transform="translate(-3.583 -2.061)" fill="#d72e19"/>
          <path id="Path_63431" data-name="Path 63431" d="M35.87,25.26H31.1a.531.531,0,0,1-.529-.529V21.418a.531.531,0,0,1,.529-.529h4.77a.53.53,0,0,1,.529.529v3.313a.53.53,0,0,1-.529.529" transform="translate(-5.336 -3.646)" fill="#ef7d00"/>
          <g id="Group_41993" data-name="Group 41993" transform="translate(26.384 17.664)" style="mix-blend-mode: normal;isolation: isolate">
            <g id="Group_41992" data-name="Group 41992">
              <g id="Group_41991" data-name="Group 41991" clip-path="url(#clip-path-4)">
                <path id="Path_63432" data-name="Path 63432" d="M35.493,23.164A1.764,1.764,0,1,1,33.728,21.4a1.765,1.765,0,0,1,1.765,1.765" transform="translate(-31.964 -21.399)" fill="#031838"/>
              </g>
            </g>
          </g>
          <g id="Group_41996" data-name="Group 41996" transform="translate(26.55 17.83)" style="mix-blend-mode: normal;isolation: isolate">
            <g id="Group_41995" data-name="Group 41995">
              <g id="Group_41994" data-name="Group 41994" clip-path="url(#clip-path-5)">
                <path id="Path_63433" data-name="Path 63433" d="M35.362,23.2a1.6,1.6,0,1,1-1.6-1.6,1.6,1.6,0,0,1,1.6,1.6" transform="translate(-32.165 -21.601)" fill="#003472"/>
              </g>
            </g>
          </g>
        </g>
      </g>
      <g id="Group_963" data-name="Group 963" transform="translate(19.907 -19.458)">
        <g id="Group_962" data-name="Group 962" transform="translate(4.409 3.35)">
          <g id="Group_961" data-name="Group 961">
            <g id="Group_960" data-name="Group 960">
              <path id="Path_64" data-name="Path 64" d="M890.647,2747.3a14.452,14.452,0,0,1-4.655-1.133.887.887,0,0,0-.7,0,14.439,14.439,0,0,1-4.652,1.143.712.712,0,0,0-.718.654l.01,6.818a3.206,3.206,0,0,0,1.8,2.771l3.51,1.886a.9.9,0,0,0,.836,0l3.5-1.894a3.2,3.2,0,0,0,1.793-2.775l-.01-6.815A.714.714,0,0,0,890.647,2747.3Z" transform="translate(-879.923 -2746.096)" fill="#004a80"/>
            </g>
          </g>
        </g>
      </g>
      <path id="Path-2" d="M898.8,2771.184a.3.3,0,0,1-.216-.092l-1.826-1.864a.319.319,0,0,1,0-.444.3.3,0,0,1,.422-.009l.009.009,1.5,1.536a.149.149,0,0,0,.109.047.146.146,0,0,0,.106-.044l3.326-3.4a.3.3,0,0,1,.42-.011l.011.011a.315.315,0,0,1,0,.442l-3.647,3.73a.3.3,0,0,1-.216.093" transform="translate(-869.671 -2778.39)" fill="#fffef0"/>
    </g>
  </g>
</svg>
