<svg xmlns="http://www.w3.org/2000/svg" xmlns:xlink="http://www.w3.org/1999/xlink" width="60" height="60" viewBox="0 0 60 60">
  <defs>
    <clipPath id="clip-path">
      <rect id="Rectangle_18028" data-name="Rectangle 18028" width="60" height="60" transform="translate(13)" fill="#fff"/>
    </clipPath>
  </defs>
  <g id="Mask_Group_44" data-name="Mask Group 44" transform="translate(-13)" clip-path="url(#clip-path)">
    <g id="Group_35613" data-name="Group 35613" transform="translate(-820.058 -240.039)">
      <g id="Group_35610" data-name="Group 35610" transform="matrix(0.985, 0.174, -0.174, 0.985, 850.702, 248.936)">
        <g id="Group_35612" data-name="Group 35612" transform="translate(0 0)">
          <path id="Path_4061" data-name="Path 4061" d="M4.376,6.758,8.907,0l8.6,12.286L7.6,14.743,0,15.514l.92-3.225Z" transform="matrix(0.985, -0.174, 0.174, 0.985, 0, 13.697)" fill="#fff"/>
          <path id="Path_4049" data-name="Path 4049" d="M10.233,1.109l-.657,2.5c-.061.231-.106.466-.185.694a1.24,1.24,0,0,1-1.85.714c-.458-.256-.9-.535-1.4-.827-.026.376-.054.728-.077,1.079-.014.248-.007.5-.027.746A1.228,1.228,0,0,1,4.247,7.074c-.7-.332-1.379-.708-2.067-1.066l-.382-.2c0,.5.006.966,0,1.428a.894.894,0,0,1-.913.933.862.862,0,0,1-.867-.816C0,6.48-.016,5.6.026,4.729a1.21,1.21,0,0,1,1.8-.945c.724.374,1.436.771,2.153,1.156.084.045.171.084.3.144.032-.435.06-.827.091-1.221q.032-.416.066-.832a1.233,1.233,0,0,1,1.946-.925c.376.26.741.536,1.115.8.1.072.212.133.351.218.183-.718.355-1.4.528-2.081C8.4.938,8.425.831,8.453.725A.908.908,0,0,1,9.3,0a.892.892,0,0,1,.88.587.989.989,0,0,0,.058.1Z" transform="translate(21.48 8.928)" fill="#1d335a"/>
          <path id="Path_4050" data-name="Path 4050" d="M5.406,2.929c-.037.154-.071.308-.11.458A2.692,2.692,0,1,1,2.166.064,1.778,1.778,0,0,0,2.358,0h.657a.763.763,0,0,0,.133.053A2.664,2.664,0,0,1,5.319,2.112c.03.113.058.226.087.338Z" transform="translate(26.307 0)" fill="#f58220"/>
          <path id="Path_4051" data-name="Path 4051" d="M0,1.855A1.993,1.993,0,0,1,3.306.5c.069.057.132.122.194.185L15.267,12.447a1.992,1.992,0,0,1-2.586,3.03c-.062-.051-.119-.106-.176-.162L.637,3.445A2.094,2.094,0,0,1,0,1.857" transform="translate(7.445 8.504)" fill="#1d335a"/>
          <path id="Path_4052" data-name="Path 4052" d="M0,3.622,2.463-1.923,11.733,3.9c-.091.052,1.719.919,1.663.943C12.059,5.433,8.5,6.157,7.16,6.731a1.037,1.037,0,0,1-.408,0S2.361,4.725.17,3.712C.126,3.692.083,3.666,0,3.623" transform="translate(3.933 19.808)" fill="#1d335a"/>
          <path id="Path_4053" data-name="Path 4053" d="M0,3.652l2.056-6S10.669,6.1,13.933,9.7c.005.009-3.066.319-2.877.508C7.648,8.509,3.55,5.42,0,3.653" transform="translate(6.267 14.466)" fill="#f58220"/>
          <path id="Path_4054" data-name="Path 4054" d="M6.789,3.342a2.177,2.177,0,0,1-.348.338c-.5.287-1.017.546-1.511.841a1.284,1.284,0,0,0-.422.429c-.292.486-.546.994-.822,1.487-.207.371-.482.375-.687.006-.291-.521-.566-1.05-.865-1.567a.933.933,0,0,0-.324-.325c-.516-.3-1.047-.571-1.562-.872C.134,3.613-.006,3.462,0,3.359a.533.533,0,0,1,.252-.351c.5-.3,1.03-.561,1.537-.856a1,1,0,0,0,.346-.344c.3-.506.56-1.031.856-1.537C3.063.15,3.216,0,3.334,0s.276.143.347.264c.3.514.572,1.047.869,1.564a.866.866,0,0,0,.308.3c.516.3,1.047.573,1.564.87a2.445,2.445,0,0,1,.368.342" transform="translate(17.203 0.576)" fill="#f58220"/>
          <path id="Path_4055" data-name="Path 4055" d="M9.691,1.435l-2.2,1.06c-.1.053-.167.088-.231.116Q4.148,3.975,1.035,5.334a1.044,1.044,0,0,1-.512.109.61.61,0,0,1-.438-.914c.479-1.1.967-2.2,1.451-3.3,0,0,1.156-2.595,1.291-2.9" transform="translate(1.115 25.124)" fill="#f58220"/>
          <path id="Path_4056" data-name="Path 4056" d="M0,1.826a.828.828,0,0,1,.56-.741C1.439.735,2.316.391,3.2.06A.886.886,0,0,1,4.337.551a.875.875,0,0,1-.483,1.16c-.881.361-1.766.713-2.662,1.035A.895.895,0,0,1,0,1.821" transform="translate(16.944 9.296)" fill="#1d335a"/>
          <path id="Path_4057" data-name="Path 4057" d="M2.726.958a1.639,1.639,0,0,1-.055.25c-.308.871-.6,1.744-.925,2.608a.888.888,0,0,1-1.514.321.858.858,0,0,1-.176-.892Q.518,1.909,1,.581A.883.883,0,0,1,2.038.024a.925.925,0,0,1,.689.934" transform="translate(10.052 1.116)" fill="#1d335a"/>
          <path id="Path_4058" data-name="Path 4058" d="M.9,1.79a.895.895,0,1,1,.888-.9.9.9,0,0,1-.888.9" transform="translate(24.001 7.289)" fill="#f58220"/>
          <path id="Path_4059" data-name="Path 4059" d="M.9,1.777a.889.889,0,1,1,.878-.9.876.876,0,0,1-.878.9" transform="translate(24.32 18.018)" fill="#f58220"/>
          <path id="Path_4060" data-name="Path 4060" d="M1.784.892A.882.882,0,0,1,.9,1.786.9.9,0,0,1,0,.9.913.913,0,0,1,.892,0a.894.894,0,0,1,.892.892" transform="translate(15.064 6.895)" fill="#f58220"/>
        </g>
      </g>
      <g id="Group_35519" data-name="Group 35519" transform="translate(844.177 275.58)">
        <path id="Path_723" data-name="Path 723" d="M46.65,115.295l4.916-.367a13.844,13.844,0,0,1,5.395.669l6.287,2.086a10.084,10.084,0,0,0,3.177.514h1.2a10.835,10.835,0,0,0,4.1-.81l.9-.368a6.9,6.9,0,0,1-.315,3.211c-.591,2.149-11.175,7.687-11.175,7.687L46.651,118.2Z" transform="translate(-46.65 -114.889)" fill="#fff"/>
        <path id="Path_724" data-name="Path 724" d="M70.178,124a3.353,3.353,0,0,1-1.855,1.577l-4.637,1.553a4.407,4.407,0,0,1-3.455-.267l-1.927-.97a.447.447,0,0,1-.181-.588.414.414,0,0,1,.389-.237l2.574.146a4.072,4.072,0,0,0,2.736-.9.952.952,0,0,0,.145-1.3.882.882,0,0,0-.423-.308l-7.536-2.62a8.6,8.6,0,0,0-3.223-.462l-5.934.385v.946a9.052,9.052,0,0,0,4.085,7.619l8,5.168a1.7,1.7,0,0,0,1.9,0l8-5.168a9.032,9.032,0,0,0,3.988-6.284,2.96,2.96,0,0,0-2.647,1.7Z" transform="translate(-46.801 -118.473)" fill="#004a80"/>
      </g>
    </g>
  </g>
</svg>
